<svg xmlns="http://www.w3.org/2000/svg" width="96" height="96" viewBox="0 0 96 96" role="img" aria-label="calm lead character">
  <rect width="96" height="96" rx="18" fill="#e8f5f2"/>
  <circle cx="48" cy="34" r="18" fill="#f0c7a8"/>
  <path d="M27 34c3-16 14-24 28-20 9 3 14 9 15 20-12-2-24-5-43 0Z" fill="#26332f"/>
  <path d="M23 82c3-21 14-32 25-32s23 11 25 32H23Z" fill="#0f9f8f"/>
  <path d="M39 58h18l-9 10-9-10Z" fill="#ffffff"/>
  <circle cx="41" cy="34" r="2" fill="#17201d"/>
  <circle cx="55" cy="34" r="2" fill="#17201d"/>
  <path d="M40 43c5 4 11 4 16 0" fill="none" stroke="#9b5b40" stroke-width="3" stroke-linecap="round"/>
</svg>

