<svg xmlns="http://www.w3.org/2000/svg" width="96" height="96" viewBox="0 0 96 96" role="img" aria-label="customer guest character">
  <rect width="96" height="96" rx="18" fill="#eef0ff"/>
  <circle cx="48" cy="36" r="18" fill="#f1c29f"/>
  <path d="M29 35c2-15 13-23 27-22 9 1 15 8 13 22-11-4-23-5-40 0Z" fill="#2e354f"/>
  <path d="M24 83c4-20 15-31 24-31s21 11 24 31H24Z" fill="#536dfe"/>
  <path d="M38 59h20l-10 10-10-10Z" fill="#ffffff"/>
  <circle cx="41" cy="36" r="2" fill="#17201d"/>
  <circle cx="55" cy="36" r="2" fill="#17201d"/>
  <path d="M42 44c4 4 9 4 13 0" fill="none" stroke="#8a5238" stroke-width="3" stroke-linecap="round"/>
  <path d="M67 56h11v18H67z" fill="#ffffff" opacity=".85"/>
  <path d="M70 62h5M70 67h5" stroke="#536dfe" stroke-width="2" stroke-linecap="round"/>
</svg>

